####
#
# OBJ File Generated by Meshlab
#
####
# Object jointure_v2.obj
#
# Vertices: 415
# Faces: 826
#
####
v 5.2500000 9.0000000 10.2500000
v 5.6740294 9.0000000 10.2319880
v 5.6740294 31.0000000 10.2319880
v 6.5098901 9.0000000 10.0886641
v 6.5098901 31.0000000 10.0886641
v 7.3095064 9.0000000 9.8061419
v 7.3095064 31.0000000 9.8061419
v 8.0498743 9.0000000 9.3925486
v 8.0498743 31.0000000 9.3925486
v 8.7096939 9.0000000 8.8597803
v 8.7096939 31.0000000 8.8597803
v 9.2699852 9.0000000 8.2231655
v 9.2699852 31.0000000 8.2231655
v 9.7146292 9.0000000 7.5010185
v 9.7146292 31.0000000 7.5010185
v 10.0308332 9.0000000 6.7141137
v 10.0308332 31.0000000 6.7141137
v 10.2095022 9.0000000 5.8850889
v 10.2095022 31.0000000 5.8850889
v 10.2454948 9.0000000 5.0377941
v 10.2454948 31.0000000 5.0377941
v 10.1377764 9.0000000 4.1966038
v 10.1377764 31.0000000 4.1966038
v 9.8894453 9.0000000 3.3857176
v 9.8894453 31.0000000 3.3857176
v 9.5076456 9.0000000 2.6284635
v 9.5076456 31.0000000 2.6284635
v 9.0033617 9.0000000 1.9466262
v 9.0033617 31.0000000 1.9466262
v 8.3910999 9.0000000 1.3598211
v 8.3910999 31.0000000 1.3598211
v 7.6884747 9.0000000 0.8849292
v 7.6884747 31.0000000 0.8849292
v 6.9156990 9.0000000 0.5356129
v 6.9156990 31.0000000 0.5356129
v 6.0950041 9.0000000 0.3219205
v 6.0950041 31.0000000 0.3219205
v 5.2500000 9.0000000 0.2500000
v 5.2500000 31.0000000 0.2500000
v 4.4049959 9.0000000 0.3219205
v 4.4049959 31.0000000 0.3219205
v 3.5843010 9.0000000 0.5356129
v 3.5843010 31.0000000 0.5356129
v 2.8115253 9.0000000 0.8849292
v 2.8115253 31.0000000 0.8849292
v 2.1088998 9.0000000 1.3598211
v 2.1088998 31.0000000 1.3598211
v 1.4966384 9.0000000 1.9466262
v 1.4966384 31.0000000 1.9466262
v 0.9923545 9.0000000 2.6284635
v 0.9923545 31.0000000 2.6284635
v 0.6105546 9.0000000 3.3857176
v 0.6105546 31.0000000 3.3857176
v 0.3622240 9.0000000 4.1966038
v 0.3622240 31.0000000 4.1966038
v 0.2545053 9.0000000 5.0377941
v 0.2545053 31.0000000 5.0377941
v 0.2904977 9.0000000 5.8850889
v 0.2904977 31.0000000 5.8850889
v 0.4691663 9.0000000 6.7141137
v 0.4691663 31.0000000 6.7141137
v 0.7853708 9.0000000 7.5010185
v 0.7853708 31.0000000 7.5010185
v 1.2300144 9.0000000 8.2231655
v 1.2300144 31.0000000 8.2231655
v 1.7903056 9.0000000 8.8597803
v 1.7903056 31.0000000 8.8597803
v 2.4501259 9.0000000 9.3925486
v 2.4501259 31.0000000 9.3925486
v 3.1904936 9.0000000 9.8061419
v 3.1904936 31.0000000 9.8061419
v 3.9901097 9.0000000 10.0886641
v 3.9901097 31.0000000 10.0886641
v 4.8259702 9.0000000 10.2319880
v 4.8259702 31.0000000 10.2319880
v 5.6952310 9.0000000 10.4810867
v 5.2500000 9.0000000 10.5000000
v 5.2500000 8.5000000 10.5000000
v 4.8047690 8.5000000 10.4810867
v 4.8047690 9.0000000 10.4810867
v 3.9271152 9.0000000 10.3305979
v 3.9271152 8.5000000 10.3305979
v 3.0875182 9.0000000 10.0339489
v 3.0875182 8.5000000 10.0339489
v 2.3101323 9.0000000 9.5996752
v 2.3101323 8.5000000 9.5996752
v 1.6173208 9.0000000 9.0402699
v 1.6173208 8.5000000 9.0402699
v 1.0290151 9.0000000 8.3718243
v 1.0290151 8.5000000 8.3718243
v 0.5621393 9.0000000 7.6135693
v 0.5621393 8.5000000 7.6135693
v 0.2301247 9.0000000 6.7873197
v 0.2301247 8.5000000 6.7873197
v 0.0425228 9.0000000 5.9168434
v 0.0425228 8.5000000 5.9168434
v 0.0047302 9.0000000 5.0271835
v 0.0047302 8.5000000 5.0271835
v 0.1178351 9.0000000 4.1439338
v 0.1178351 8.5000000 4.1439338
v 0.3785826 9.0000000 3.2925036
v 0.3785826 8.5000000 3.2925036
v 0.7794718 9.0000000 2.4973867
v 0.7794718 8.5000000 2.4973867
v 1.3089702 9.0000000 1.7814575
v 1.3089702 8.5000000 1.7814575
v 1.9518449 9.0000000 1.1653123
v 1.9518449 8.5000000 1.1653123
v 2.6896014 9.0000000 0.6666756
v 2.6896014 8.5000000 0.6666756
v 3.5010161 9.0000000 0.2998933
v 3.5010161 8.5000000 0.2998933
v 4.3627458 9.0000000 0.0755163
v 4.3627458 8.5000000 0.0755163
v 5.2500000 9.0000000 0.0000000
v 5.2500000 8.5000000 0.0000000
v 6.1372542 9.0000000 0.0755163
v 6.1372542 8.5000000 0.0755163
v 6.9989839 9.0000000 0.2998933
v 6.9989839 8.5000000 0.2998933
v 7.8103986 9.0000000 0.6666756
v 7.8103986 8.5000000 0.6666756
v 8.5481548 9.0000000 1.1653123
v 8.5481548 8.5000000 1.1653123
v 9.1910295 9.0000000 1.7814575
v 9.1910295 8.5000000 1.7814575
v 9.7205276 9.0000000 2.4973867
v 9.7205276 8.5000000 2.4973867
v 10.1214170 9.0000000 3.2925036
v 10.1214170 8.5000000 3.2925036
v 10.3821650 9.0000000 4.1439338
v 10.3821650 8.5000000 4.1439338
v 10.4952698 9.0000000 5.0271835
v 10.4952698 8.5000000 5.0271835
v 10.4574766 9.0000000 5.9168434
v 10.4574766 8.5000000 5.9168434
v 10.2698755 9.0000000 6.7873197
v 10.2698755 8.5000000 6.7873197
v 9.9378605 9.0000000 7.6135693
v 9.9378605 8.5000000 7.6135693
v 9.4709845 9.0000000 8.3718243
v 9.4709845 8.5000000 8.3718243
v 8.8826790 9.0000000 9.0402699
v 8.8826790 8.5000000 9.0402699
v 8.1898670 9.0000000 9.5996752
v 8.1898670 8.5000000 9.5996752
v 7.4124818 9.0000000 10.0339489
v 7.4124818 8.5000000 10.0339489
v 6.5728846 9.0000000 10.3305979
v 6.5728846 8.5000000 10.3305979
v 5.6952310 8.5000000 10.4810867
v 5.2500000 0.0000000 10.2500000
v 4.8259702 0.0000000 10.2319880
v 5.2500000 0.0000000 5.2500000
v 5.6740294 0.0000000 10.2319880
v 8.0498743 0.0000000 9.3925486
v 7.3095064 0.0000000 9.8061419
v 6.5098901 0.0000000 10.0886641
v 9.7146292 0.0000000 7.5010185
v 9.2699852 0.0000000 8.2231655
v 8.7096939 0.0000000 8.8597803
v 10.2454948 0.0000000 5.0377941
v 10.2095022 0.0000000 5.8850889
v 10.0308332 0.0000000 6.7141137
v 9.5076456 0.0000000 2.6284635
v 9.8894453 0.0000000 3.3857176
v 10.1377764 0.0000000 4.1966038
v 7.6884747 0.0000000 0.8849292
v 8.3910999 0.0000000 1.3598211
v 9.0033617 0.0000000 1.9466262
v 5.2500000 0.0000000 0.2500000
v 6.0950041 0.0000000 0.3219205
v 6.9156990 0.0000000 0.5356129
v 2.8115253 0.0000000 0.8849292
v 3.5843010 0.0000000 0.5356129
v 4.4049959 0.0000000 0.3219205
v 0.9923545 0.0000000 2.6284635
v 1.4966384 0.0000000 1.9466262
v 2.1088998 0.0000000 1.3598211
v 0.2545053 0.0000000 5.0377941
v 0.3622240 0.0000000 4.1966038
v 0.6105546 0.0000000 3.3857176
v 0.7853708 0.0000000 7.5010185
v 0.4691663 0.0000000 6.7141137
v 0.2904977 0.0000000 5.8850889
v 2.4501259 0.0000000 9.3925486
v 1.7903056 0.0000000 8.8597803
v 1.2300144 0.0000000 8.2231655
v 3.9901097 0.0000000 10.0886641
v 3.1904936 0.0000000 9.8061419
v 5.6740294 8.2500000 10.2319880
v 5.2500000 8.2500000 10.2500000
v 4.8259702 8.2500000 10.2319880
v 3.9901097 8.2500000 10.0886641
v 3.1904936 8.2500000 9.8061419
v 2.4501259 8.2500000 9.3925486
v 1.7903056 8.2500000 8.8597803
v 1.2300144 8.2500000 8.2231655
v 0.7853708 8.2500000 7.5010185
v 0.4691663 8.2500000 6.7141137
v 0.2904977 8.2500000 5.8850889
v 0.2545053 8.2500000 5.0377941
v 0.3622240 8.2500000 4.1966038
v 0.6105546 8.2500000 3.3857176
v 0.9923545 8.2500000 2.6284635
v 1.4966384 8.2500000 1.9466262
v 2.1088998 8.2500000 1.3598211
v 2.8115253 8.2500000 0.8849292
v 3.5843010 8.2500000 0.5356129
v 4.4049959 8.2500000 0.3219205
v 5.2500000 8.2500000 0.2500000
v 6.0950041 8.2500000 0.3219205
v 6.9156990 8.2500000 0.5356129
v 7.6884747 8.2500000 0.8849292
v 8.3910999 8.2500000 1.3598211
v 9.0033617 8.2500000 1.9466262
v 9.5076456 8.2500000 2.6284635
v 9.8894453 8.2500000 3.3857176
v 10.1377764 8.2500000 4.1966038
v 10.2454948 8.2500000 5.0377941
v 10.2095022 8.2500000 5.8850889
v 10.0308332 8.2500000 6.7141137
v 9.7146292 8.2500000 7.5010185
v 9.2699852 8.2500000 8.2231655
v 8.7096939 8.2500000 8.8597803
v 8.0498743 8.2500000 9.3925486
v 7.3095064 8.2500000 9.8061419
v 6.5098901 8.2500000 10.0886641
v 4.3627458 31.0000000 10.4244833
v 5.2500000 31.0000000 10.5000000
v 4.8047690 31.5000000 10.4810867
v 4.3627458 31.5000000 10.4244833
v 3.9271152 31.5000000 10.3305979
v 3.5010161 31.0000000 10.2001066
v 3.5010161 31.5000000 10.2001066
v 3.0875182 31.5000000 10.0339489
v 2.6896014 31.0000000 9.8333244
v 2.6896014 31.5000000 9.8333244
v 2.3101323 31.5000000 9.5996752
v 1.9518449 31.0000000 9.3346872
v 1.9518449 31.5000000 9.3346872
v 1.6173208 31.5000000 9.0402699
v 1.3089702 31.0000000 8.7185421
v 1.3089702 31.5000000 8.7185421
v 1.0290151 31.5000000 8.3718243
v 0.7794718 31.0000000 8.0026131
v 0.7794718 31.5000000 8.0026131
v 0.5621393 31.5000000 7.6135693
v 0.3785826 31.0000000 7.2074962
v 0.3785826 31.5000000 7.2074962
v 0.1178351 31.0000000 6.3560662
v 0.2301247 31.5000000 6.7873197
v 0.1178351 31.5000000 6.3560662
v 0.0047302 31.0000000 5.4728165
v 0.0425228 31.5000000 5.9168434
v 0.0047302 31.5000000 5.4728165
v 0.0425228 31.0000000 4.5831566
v 0.0047302 31.5000000 5.0271835
v 0.0425228 31.5000000 4.5831566
v 0.2301247 31.0000000 3.7126803
v 0.1178351 31.5000000 4.1439338
v 0.2301247 31.5000000 3.7126803
v 0.5621393 31.0000000 2.8864303
v 0.3785826 31.5000000 3.2925036
v 0.5621393 31.5000000 2.8864303
v 1.0290151 31.0000000 2.1281757
v 0.7794718 31.5000000 2.4973867
v 1.0290151 31.5000000 2.1281757
v 1.6173208 31.0000000 1.4597303
v 1.3089702 31.5000000 1.7814575
v 1.6173208 31.5000000 1.4597303
v 2.3101323 31.0000000 0.9003245
v 1.9518449 31.5000000 1.1653123
v 2.3101323 31.5000000 0.9003245
v 3.0875182 31.0000000 0.4660506
v 2.6896014 31.5000000 0.6666756
v 3.0875182 31.5000000 0.4660506
v 3.9271152 31.0000000 0.1694020
v 3.5010161 31.5000000 0.2998933
v 3.9271152 31.5000000 0.1694020
v 4.8047690 31.0000000 0.0189133
v 4.3627458 31.5000000 0.0755163
v 4.8047690 31.5000000 0.0189133
v 5.6952310 31.0000000 0.0189133
v 5.2500000 31.5000000 0.0000000
v 5.6952310 31.5000000 0.0189133
v 6.5728846 31.0000000 0.1694020
v 6.1372542 31.5000000 0.0755163
v 6.5728846 31.5000000 0.1694020
v 6.9989839 31.5000000 0.2998933
v 7.4124818 31.0000000 0.4660506
v 7.4124818 31.5000000 0.4660506
v 8.1898670 31.0000000 0.9003245
v 7.8103986 31.5000000 0.6666756
v 8.1898670 31.5000000 0.9003245
v 8.5481548 31.5000000 1.1653123
v 8.8826790 31.0000000 1.4597303
v 8.8826790 31.5000000 1.4597303
v 9.1910295 31.5000000 1.7814575
v 9.4709845 31.0000000 2.1281757
v 9.4709845 31.5000000 2.1281757
v 9.7205276 31.5000000 2.4973867
v 9.9378605 31.0000000 2.8864303
v 9.9378605 31.5000000 2.8864303
v 10.1214170 31.5000000 3.2925036
v 10.2698755 31.0000000 3.7126803
v 10.2698755 31.5000000 3.7126803
v 10.3821650 31.5000000 4.1439338
v 10.4574766 31.0000000 4.5831566
v 10.4574766 31.5000000 4.5831566
v 10.4952698 31.5000000 5.0271835
v 10.4952698 31.0000000 5.4728165
v 10.4952698 31.5000000 5.4728165
v 10.4574766 31.5000000 5.9168434
v 10.3821650 31.0000000 6.3560662
v 10.3821650 31.5000000 6.3560662
v 10.2698755 31.5000000 6.7873197
v 10.1214170 31.0000000 7.2074962
v 10.1214170 31.5000000 7.2074962
v 9.9378605 31.5000000 7.6135693
v 9.7205276 31.0000000 8.0026131
v 9.7205276 31.5000000 8.0026131
v 9.4709845 31.5000000 8.3718243
v 9.1910295 31.0000000 8.7185421
v 9.1910295 31.5000000 8.7185421
v 8.8826790 31.5000000 9.0402699
v 8.5481548 31.0000000 9.3346872
v 8.5481548 31.5000000 9.3346872
v 8.1898670 31.5000000 9.5996752
v 7.8103986 31.0000000 9.8333244
v 7.8103986 31.5000000 9.8333244
v 7.4124818 31.5000000 10.0339489
v 6.9989839 31.0000000 10.2001066
v 6.9989839 31.5000000 10.2001066
v 6.5728846 31.5000000 10.3305979
v 6.1372542 31.0000000 10.4244833
v 6.1372542 31.5000000 10.4244833
v 5.6952310 31.5000000 10.4810867
v 5.2500000 31.5000000 10.5000000
v 5.2500000 40.0000000 10.2500000
v 5.6740294 40.0000000 10.2319880
v 5.2500000 40.0000000 5.2500000
v 4.8259702 40.0000000 10.2319880
v 2.4501259 40.0000000 9.3925486
v 3.1904936 40.0000000 9.8061419
v 3.9901097 40.0000000 10.0886641
v 0.7853708 40.0000000 7.5010185
v 1.2300144 40.0000000 8.2231655
v 1.7903056 40.0000000 8.8597803
v 0.2545053 40.0000000 5.0377941
v 0.2904977 40.0000000 5.8850889
v 0.4691663 40.0000000 6.7141137
v 0.9923545 40.0000000 2.6284635
v 0.6105546 40.0000000 3.3857176
v 0.3622240 40.0000000 4.1966038
v 2.8115253 40.0000000 0.8849292
v 2.1088998 40.0000000 1.3598211
v 1.4966384 40.0000000 1.9466262
v 5.2500000 40.0000000 0.2500000
v 4.4049959 40.0000000 0.3219205
v 3.5843010 40.0000000 0.5356129
v 7.6884747 40.0000000 0.8849292
v 6.9156990 40.0000000 0.5356129
v 6.0950041 40.0000000 0.3219205
v 9.5076456 40.0000000 2.6284635
v 9.0033617 40.0000000 1.9466262
v 8.3910999 40.0000000 1.3598211
v 10.2454948 40.0000000 5.0377941
v 10.1377764 40.0000000 4.1966038
v 9.8894453 40.0000000 3.3857176
v 9.7146292 40.0000000 7.5010185
v 10.0308332 40.0000000 6.7141137
v 10.2095022 40.0000000 5.8850889
v 8.0498743 40.0000000 9.3925486
v 8.7096939 40.0000000 8.8597803
v 9.2699852 40.0000000 8.2231655
v 6.5098901 40.0000000 10.0886641
v 7.3095064 40.0000000 9.8061419
v 4.8259702 31.7500019 10.2319880
v 3.9901097 31.7500019 10.0886641
v 3.1904936 31.7500019 9.8061419
v 2.4501259 31.7500019 9.3925486
v 1.7903056 31.7500019 8.8597803
v 1.2300144 31.7500019 8.2231655
v 0.7853708 31.7500019 7.5010185
v 0.4691663 31.7500019 6.7141137
v 0.2904977 31.7500019 5.8850889
v 0.2545053 31.7500019 5.0377941
v 0.3622240 31.7500019 4.1966038
v 0.6105546 31.7500019 3.3857176
v 0.9923545 31.7500019 2.6284635
v 1.4966384 31.7500019 1.9466262
v 2.1088998 31.7500019 1.3598211
v 2.8115253 31.7500019 0.8849292
v 3.5843010 31.7500019 0.5356129
v 4.4049959 31.7500019 0.3219205
v 5.2500000 31.7500019 0.2500000
v 6.0950041 31.7500019 0.3219205
v 6.9156990 31.7500019 0.5356129
v 7.6884747 31.7500019 0.8849292
v 8.3910999 31.7500019 1.3598211
v 9.0033617 31.7500019 1.9466262
v 9.5076456 31.7500019 2.6284635
v 9.8894453 31.7500019 3.3857176
v 10.1377764 31.7500019 4.1966038
v 10.2454948 31.7500019 5.0377941
v 10.2095022 31.7500019 5.8850889
v 10.0308332 31.7500019 6.7141137
v 9.7146292 31.7500019 7.5010185
v 9.2699852 31.7500019 8.2231655
v 8.7096939 31.7500019 8.8597803
v 8.0498743 31.7500019 9.3925486
v 7.3095064 31.7500019 9.8061419
v 6.5098901 31.7500019 10.0886641
v 5.6740294 31.7500019 10.2319880
# 415 vertices, 0 vertices normals

f 1 2 3
f 3 2 4
f 3 4 5
f 5 4 6
f 5 6 7
f 7 6 8
f 7 8 9
f 9 8 10
f 9 10 11
f 11 10 12
f 11 12 13
f 13 12 14
f 13 14 15
f 15 14 16
f 15 16 17
f 17 16 18
f 17 18 19
f 19 18 20
f 19 20 21
f 21 20 22
f 21 22 23
f 23 22 24
f 23 24 25
f 25 24 26
f 25 26 27
f 27 26 28
f 27 28 29
f 29 28 30
f 29 30 31
f 31 30 32
f 31 32 33
f 33 32 34
f 33 34 35
f 35 34 36
f 35 36 37
f 37 36 38
f 37 38 39
f 39 38 40
f 39 40 41
f 41 40 42
f 41 42 43
f 43 42 44
f 43 44 45
f 45 44 46
f 45 46 47
f 47 46 48
f 47 48 49
f 49 48 50
f 49 50 51
f 51 50 52
f 51 52 53
f 53 52 54
f 53 54 55
f 55 54 56
f 55 56 57
f 57 56 58
f 57 58 59
f 59 58 60
f 59 60 61
f 61 60 62
f 61 62 63
f 63 62 64
f 63 64 65
f 65 64 66
f 65 66 67
f 67 66 68
f 67 68 69
f 69 68 70
f 69 70 71
f 71 70 72
f 71 72 73
f 73 72 74
f 73 74 75
f 75 74 1
f 75 1 3
f 76 77 78
f 78 77 79
f 77 80 79
f 79 80 81
f 79 81 82
f 82 81 83
f 82 83 84
f 84 83 85
f 84 85 86
f 86 85 87
f 86 87 88
f 88 87 89
f 88 89 90
f 90 89 91
f 90 91 92
f 92 91 93
f 92 93 94
f 94 93 95
f 94 95 96
f 96 95 97
f 96 97 98
f 98 97 99
f 98 99 100
f 100 99 101
f 100 101 102
f 102 101 103
f 102 103 104
f 104 103 105
f 104 105 106
f 106 105 107
f 106 107 108
f 108 107 109
f 108 109 110
f 110 109 111
f 110 111 112
f 112 111 113
f 112 113 114
f 114 113 115
f 114 115 116
f 116 115 117
f 116 117 118
f 118 117 119
f 118 119 120
f 120 119 121
f 120 121 122
f 122 121 123
f 122 123 124
f 124 123 125
f 124 125 126
f 126 125 127
f 126 127 128
f 128 127 129
f 128 129 130
f 130 129 131
f 130 131 132
f 132 131 133
f 132 133 134
f 134 133 135
f 134 135 136
f 136 135 137
f 136 137 138
f 138 137 139
f 138 139 140
f 140 139 141
f 140 141 142
f 142 141 143
f 142 143 144
f 144 143 145
f 144 145 146
f 146 145 147
f 146 147 148
f 148 147 149
f 148 149 150
f 150 149 76
f 150 76 151
f 151 76 78
f 40 113 42
f 42 113 111
f 42 111 44
f 44 111 109
f 44 109 46
f 46 109 107
f 46 107 48
f 48 107 105
f 48 105 50
f 50 105 103
f 50 103 52
f 52 103 101
f 52 101 54
f 54 101 99
f 54 99 56
f 56 99 97
f 56 97 58
f 58 97 95
f 58 95 60
f 60 95 93
f 60 93 62
f 62 93 91
f 62 91 64
f 64 91 89
f 64 89 66
f 66 89 87
f 66 87 68
f 68 87 85
f 68 85 70
f 70 85 83
f 70 83 72
f 72 83 81
f 72 81 74
f 74 81 80
f 74 80 1
f 1 80 77
f 1 77 2
f 2 77 76
f 2 76 4
f 4 76 149
f 4 149 6
f 6 149 147
f 6 147 8
f 8 147 145
f 8 145 10
f 10 145 143
f 10 143 12
f 12 143 141
f 12 141 14
f 14 141 139
f 14 139 16
f 16 139 137
f 16 137 18
f 18 137 135
f 18 135 20
f 20 135 133
f 20 133 22
f 22 133 131
f 22 131 24
f 24 131 129
f 24 129 26
f 26 129 127
f 26 127 28
f 28 127 125
f 28 125 30
f 30 125 123
f 30 123 32
f 32 123 121
f 32 121 34
f 34 121 119
f 34 119 36
f 36 119 117
f 36 117 38
f 38 117 115
f 38 115 40
f 40 115 113
f 152 153 154
f 152 154 155
f 156 157 154
f 154 157 158
f 154 158 155
f 159 160 154
f 154 160 161
f 154 161 156
f 162 163 154
f 154 163 164
f 154 164 159
f 165 166 154
f 154 166 167
f 154 167 162
f 168 169 154
f 154 169 170
f 154 170 165
f 171 172 154
f 154 172 173
f 154 173 168
f 174 175 154
f 154 175 176
f 154 176 171
f 177 178 154
f 154 178 179
f 154 179 174
f 180 181 154
f 154 181 182
f 154 182 177
f 183 184 154
f 154 184 185
f 154 185 180
f 186 187 154
f 154 187 188
f 154 188 183
f 153 189 154
f 154 189 190
f 154 190 186
f 191 192 152
f 152 192 153
f 192 193 153
f 153 193 194
f 153 194 189
f 189 194 195
f 189 195 190
f 190 195 196
f 190 196 186
f 186 196 197
f 186 197 187
f 187 197 198
f 187 198 188
f 188 198 199
f 188 199 183
f 183 199 200
f 183 200 184
f 184 200 201
f 184 201 185
f 185 201 202
f 185 202 180
f 180 202 203
f 180 203 181
f 181 203 204
f 181 204 182
f 182 204 205
f 182 205 177
f 177 205 206
f 177 206 178
f 178 206 207
f 178 207 179
f 179 207 208
f 179 208 174
f 174 208 209
f 174 209 175
f 175 209 210
f 175 210 176
f 176 210 211
f 176 211 171
f 171 211 212
f 171 212 172
f 172 212 213
f 172 213 173
f 173 213 214
f 173 214 168
f 168 214 215
f 168 215 169
f 169 215 216
f 169 216 170
f 170 216 217
f 170 217 165
f 165 217 218
f 165 218 166
f 166 218 219
f 166 219 167
f 167 219 220
f 167 220 162
f 162 220 221
f 162 221 163
f 163 221 222
f 163 222 164
f 164 222 223
f 164 223 159
f 159 223 224
f 159 224 160
f 160 224 225
f 160 225 161
f 161 225 226
f 161 226 156
f 156 226 227
f 156 227 157
f 157 227 228
f 157 228 158
f 158 228 191
f 158 191 155
f 155 191 152
f 78 191 151
f 151 191 228
f 151 228 150
f 150 228 227
f 150 227 148
f 148 227 226
f 148 226 146
f 146 226 225
f 146 225 144
f 144 225 224
f 144 224 142
f 142 224 223
f 142 223 140
f 140 223 222
f 140 222 138
f 138 222 221
f 138 221 136
f 136 221 220
f 136 220 134
f 134 220 219
f 134 219 132
f 132 219 218
f 132 218 130
f 130 218 217
f 130 217 128
f 128 217 216
f 128 216 126
f 126 216 215
f 126 215 124
f 124 215 214
f 124 214 122
f 122 214 213
f 122 213 120
f 120 213 212
f 120 212 118
f 118 212 211
f 118 211 116
f 116 211 210
f 116 210 114
f 114 210 209
f 114 209 112
f 112 209 208
f 112 208 110
f 110 208 207
f 110 207 108
f 108 207 206
f 108 206 106
f 106 206 205
f 106 205 104
f 104 205 204
f 104 204 102
f 102 204 203
f 102 203 100
f 100 203 202
f 100 202 98
f 98 202 201
f 98 201 96
f 96 201 200
f 96 200 94
f 94 200 199
f 94 199 92
f 92 199 198
f 92 198 90
f 90 198 197
f 90 197 88
f 88 197 196
f 88 196 86
f 86 196 195
f 86 195 84
f 84 195 194
f 84 194 82
f 82 194 193
f 82 193 79
f 79 193 192
f 79 192 78
f 78 192 191
f 229 230 231
f 231 232 229
f 229 232 233
f 229 233 234
f 233 235 234
f 234 235 236
f 234 236 237
f 236 238 237
f 237 238 239
f 237 239 240
f 239 241 240
f 240 241 242
f 240 242 243
f 242 244 243
f 243 244 245
f 243 245 246
f 245 247 246
f 246 247 248
f 246 248 249
f 249 248 250
f 249 250 251
f 250 252 251
f 251 252 253
f 251 253 254
f 253 255 254
f 254 255 256
f 254 256 257
f 256 258 257
f 257 258 259
f 257 259 260
f 259 261 260
f 260 261 262
f 260 262 263
f 262 264 263
f 263 264 265
f 263 265 266
f 265 267 266
f 266 267 268
f 266 268 269
f 268 270 269
f 269 270 271
f 269 271 272
f 271 273 272
f 272 273 274
f 272 274 275
f 274 276 275
f 275 276 277
f 275 277 278
f 277 279 278
f 278 279 280
f 278 280 281
f 280 282 281
f 281 282 283
f 281 283 284
f 283 285 284
f 284 285 286
f 284 286 287
f 287 286 288
f 288 289 287
f 287 289 290
f 287 290 291
f 291 290 292
f 291 292 293
f 293 292 294
f 294 295 293
f 293 295 296
f 293 296 297
f 296 298 297
f 297 298 299
f 297 299 300
f 299 301 300
f 300 301 302
f 300 302 303
f 302 304 303
f 303 304 305
f 303 305 306
f 305 307 306
f 306 307 308
f 306 308 309
f 308 310 309
f 309 310 311
f 309 311 312
f 311 313 312
f 312 313 314
f 312 314 315
f 314 316 315
f 315 316 317
f 315 317 318
f 317 319 318
f 318 319 320
f 318 320 321
f 320 322 321
f 321 322 323
f 321 323 324
f 323 325 324
f 324 325 326
f 324 326 327
f 326 328 327
f 327 328 329
f 327 329 330
f 329 331 330
f 330 331 332
f 330 332 333
f 332 334 333
f 333 334 335
f 333 335 336
f 335 337 336
f 336 337 338
f 336 338 230
f 230 338 339
f 230 339 231
f 9 11 324
f 324 11 13
f 324 13 321
f 321 13 15
f 321 15 318
f 266 49 51
f 260 53 55
f 49 266 47
f 47 266 269
f 47 269 45
f 45 269 272
f 45 272 43
f 43 272 275
f 43 275 41
f 41 275 278
f 41 278 39
f 39 278 281
f 39 281 37
f 37 281 284
f 37 284 35
f 318 15 315
f 315 15 17
f 315 17 312
f 312 17 19
f 312 19 309
f 309 19 21
f 309 21 306
f 53 260 51
f 51 260 263
f 51 263 266
f 251 59 61
f 246 63 65
f 21 23 306
f 306 23 25
f 306 25 303
f 303 25 27
f 303 27 300
f 300 27 29
f 300 29 297
f 297 29 293
f 284 287 35
f 35 287 291
f 35 291 33
f 33 291 293
f 33 293 31
f 31 293 29
f 59 251 57
f 57 251 254
f 57 254 55
f 55 254 257
f 55 257 260
f 230 229 73
f 63 246 61
f 61 246 249
f 61 249 251
f 73 229 71
f 71 229 234
f 71 234 69
f 69 234 237
f 69 237 67
f 67 237 240
f 67 240 65
f 65 240 243
f 65 243 246
f 324 327 9
f 9 327 330
f 9 330 7
f 7 330 333
f 7 333 5
f 5 333 336
f 5 336 3
f 3 336 230
f 3 230 75
f 75 230 73
f 340 341 342
f 340 342 343
f 344 345 342
f 342 345 346
f 342 346 343
f 347 348 342
f 342 348 349
f 342 349 344
f 350 351 342
f 342 351 352
f 342 352 347
f 353 354 342
f 342 354 355
f 342 355 350
f 356 357 342
f 342 357 358
f 342 358 353
f 359 360 342
f 342 360 361
f 342 361 356
f 362 363 342
f 342 363 364
f 342 364 359
f 365 366 342
f 342 366 367
f 342 367 362
f 368 369 342
f 342 369 370
f 342 370 365
f 371 372 342
f 342 372 373
f 342 373 368
f 374 375 342
f 342 375 376
f 342 376 371
f 341 377 342
f 342 377 378
f 342 378 374
f 340 343 379
f 379 343 346
f 379 346 380
f 380 346 345
f 380 345 381
f 381 345 344
f 381 344 382
f 382 344 349
f 382 349 383
f 383 349 348
f 383 348 384
f 384 348 347
f 384 347 385
f 385 347 352
f 385 352 386
f 386 352 351
f 386 351 387
f 387 351 350
f 387 350 388
f 388 350 355
f 388 355 389
f 389 355 354
f 389 354 390
f 390 354 353
f 390 353 391
f 391 353 358
f 391 358 392
f 392 358 357
f 392 357 393
f 393 357 356
f 393 356 394
f 394 356 361
f 394 361 395
f 395 361 360
f 395 360 396
f 396 360 359
f 396 359 397
f 397 359 364
f 397 364 398
f 398 364 363
f 398 363 399
f 399 363 362
f 399 362 400
f 400 362 367
f 400 367 401
f 401 367 366
f 401 366 402
f 402 366 365
f 402 365 403
f 403 365 370
f 403 370 404
f 404 370 369
f 404 369 405
f 405 369 368
f 405 368 406
f 406 368 373
f 406 373 407
f 407 373 372
f 407 372 408
f 408 372 371
f 408 371 409
f 409 371 376
f 409 376 410
f 410 376 375
f 410 375 411
f 411 375 374
f 411 374 412
f 412 374 378
f 412 378 413
f 413 378 377
f 413 377 414
f 414 377 341
f 414 341 415
f 415 341 340
f 415 340 379
f 280 395 282
f 282 395 396
f 282 396 283
f 283 396 397
f 283 397 285
f 280 279 395
f 395 279 277
f 395 277 394
f 394 277 276
f 394 276 393
f 393 276 274
f 274 273 393
f 393 273 271
f 393 271 392
f 392 271 270
f 392 270 391
f 391 270 268
f 268 267 391
f 391 267 265
f 391 265 390
f 390 265 264
f 390 264 389
f 389 264 262
f 262 261 389
f 389 261 259
f 389 259 388
f 259 258 388
f 388 258 256
f 388 256 387
f 387 256 255
f 387 255 386
f 386 255 253
f 253 252 386
f 386 252 250
f 386 250 385
f 385 250 248
f 385 248 384
f 384 248 247
f 247 245 384
f 384 245 244
f 384 244 383
f 383 244 242
f 383 242 382
f 382 242 241
f 241 239 382
f 382 239 238
f 382 238 381
f 238 236 381
f 381 236 235
f 381 235 380
f 380 235 233
f 380 233 379
f 233 232 379
f 379 232 231
f 379 231 415
f 415 231 339
f 339 338 415
f 415 338 337
f 415 337 414
f 414 337 335
f 414 335 413
f 335 334 413
f 413 334 332
f 413 332 412
f 332 331 412
f 412 331 329
f 412 329 411
f 411 329 328
f 328 326 411
f 411 326 325
f 411 325 410
f 325 323 410
f 410 323 322
f 410 322 409
f 322 320 409
f 409 320 319
f 409 319 408
f 319 317 408
f 408 317 316
f 408 316 407
f 316 314 407
f 407 314 313
f 407 313 406
f 313 311 406
f 406 311 310
f 406 310 405
f 310 308 405
f 405 308 307
f 405 307 404
f 404 307 305
f 404 305 403
f 305 304 403
f 403 304 302
f 403 302 402
f 402 302 301
f 301 299 402
f 402 299 298
f 402 298 401
f 298 296 401
f 401 296 295
f 401 295 400
f 400 295 294
f 400 294 399
f 399 294 292
f 292 290 399
f 399 290 289
f 399 289 398
f 398 289 288
f 398 288 397
f 397 288 286
f 397 286 285
# 826 faces, 0 coords texture

# End of File
